<svg xmlns="http://www.w3.org/2000/svg" width="33" height="33.012" viewBox="0 0 33 33.012">
  <g id="Group_3022" data-name="Group 3022" transform="translate(993.181 -903.296)">
    <path id="Path_8015" data-name="Path 8015" d="M-984.933,903.3a1,1,0,0,1,.394.911c-.016,2.523,0,5.045-.012,7.568a3.836,3.836,0,0,1-2.126,3.528.428.428,0,0,0-.259.44q.008,9.291,0,18.582a1.85,1.85,0,0,1-1.049,1.75,1.825,1.825,0,0,1-2.005-.144,1.878,1.878,0,0,1-.814-1.626q.006-9.242.009-18.485a.54.54,0,0,0-.334-.558,3.86,3.86,0,0,1-1.994-2.738.722.722,0,0,0-.063-.141V903.3h.9a1,1,0,0,1,.394.911c-.017,2.115-.008,4.229-.008,6.344v.331h1.161v-.364c0-2.1.009-4.208-.008-6.312a1,1,0,0,1,.394-.911h.516a1,1,0,0,1,.394.911c-.017,2.115-.008,4.229-.008,6.344v.331h1.161v-.364c0-2.1.009-4.208-.008-6.312a1,1,0,0,1,.394-.911h.516a1,1,0,0,1,.394.911c-.017,2.115-.008,4.229-.008,6.344v.331h1.161v-.364c0-2.1.009-4.208-.008-6.312a1,1,0,0,1,.394-.911Zm-6.921,8.906a2.667,2.667,0,0,0,1.737,2.1c.522.2.609.314.609.874v18.3c0,.258,0,.516,0,.773a.684.684,0,0,0,.634.75c.375.008.646-.307.655-.762,0-.075,0-.15,0-.225V915.162c0-.54.094-.671.59-.855a2.664,2.664,0,0,0,.409-.186,2.644,2.644,0,0,0,1.34-1.92Z" fill="#0f3727"/>
    <path id="Path_8016" data-name="Path 8016" d="M-924.143,903.3a1,1,0,0,1,.394.911q-.015,15.045-.008,30.091a1.912,1.912,0,0,1-1.473,1.937,1.922,1.922,0,0,1-2.39-1.842q-.008-4.591,0-9.182a.725.725,0,0,0-.243-.589c-.368-.344-.724-.7-1.068-1.073a3.189,3.189,0,0,1-.885-2.247c0-2.814-.031-5.628.007-8.441a11.253,11.253,0,0,1,4.908-9.368c.083-.061.159-.131.239-.2Zm-.9,1.979c-.1.084-.14.116-.179.153a10.048,10.048,0,0,0-3.3,7.524c-.029,2.738-.005,5.476-.007,8.214a2.2,2.2,0,0,0,.682,1.644c.407.4.8.81,1.211,1.2a.945.945,0,0,1,.3.742q-.012,4.67,0,9.341a1.635,1.635,0,0,0,.057.474.575.575,0,0,0,.585.42.576.576,0,0,0,.585-.419,1.64,1.64,0,0,0,.058-.474q0-14.221,0-28.442Z" transform="translate(-36.432)" fill="#0f3727"/>
    <path id="Path_8017" data-name="Path 8017" d="M-966.757,920.583a9.14,9.14,0,0,1,9.163,9.16,9.143,9.143,0,0,1-9.152,9.14,9.142,9.142,0,0,1-9.148-9.177A9.143,9.143,0,0,1-966.757,920.583Zm.019,1.288a7.9,7.9,0,0,0-7.867,7.863,7.9,7.9,0,0,0,7.838,7.86,7.9,7.9,0,0,0,7.884-7.848A7.9,7.9,0,0,0-966.738,921.872Z" transform="translate(-9.941 -9.941)" fill="#0f3727"/>
    <path id="Path_8018" data-name="Path 8018" d="M-963.767,963.312a12.026,12.026,0,0,1-6.581-1.869.674.674,0,0,1-.38-.716.572.572,0,0,1,.5-.516.976.976,0,0,1,.569.135,10.823,10.823,0,0,0,4.09,1.541,10.794,10.794,0,0,0,8.757-2.352,18.051,18.051,0,0,0,1.611-1.614c.335-.351.668-.426.983-.178a.677.677,0,0,1,.013,1.022,12.124,12.124,0,0,1-7.77,4.435c-.3.045-.594.09-.893.109S-963.466,963.312-963.767,963.312Z" transform="translate(-12.905 -31.225)" fill="#0f3727"/>
    <path id="Path_8019" data-name="Path 8019" d="M-962.419,913.125a12.229,12.229,0,0,1,8.822,3.707,1.208,1.208,0,0,1,.264.359.635.635,0,0,1-.25.764.671.671,0,0,1-.828-.092c-.524-.459-1.019-.956-1.579-1.366a10.6,10.6,0,0,0-5.469-2.022,10.944,10.944,0,0,0-5.828,1.094.672.672,0,0,1-.988-.252c-.176-.363-.02-.708.429-.928A12.084,12.084,0,0,1-962.419,913.125Z" transform="translate(-14.281 -5.652)" fill="#0f3727"/>
    <path id="Path_8020" data-name="Path 8020" d="M-975.286,960.654a.63.63,0,0,1,.652-.644.671.671,0,0,1,.66.686.656.656,0,0,1-.639.638A.688.688,0,0,1-975.286,960.654Z" transform="translate(-10.29 -32.613)" fill="#0f3727"/>
    <path id="Path_8021" data-name="Path 8021" d="M-968.308,934.511a5.966,5.966,0,0,1,3.547-5.267.65.65,0,0,1,.9.306.645.645,0,0,1-.389.889,4.486,4.486,0,0,0-2.465,2.661,7.281,7.281,0,0,0-.288,1.474c-.061.5-.275.764-.694.744-.393-.019-.611-.3-.608-.79C-968.308,934.5-968.308,934.463-968.308,934.511Z" transform="translate(-14.303 -14.882)" fill="#0f3727"/>
    <path id="Path_8022" data-name="Path 8022" d="M-955.306,929.457a.649.649,0,0,1-.657-.643.656.656,0,0,1,.66-.645.638.638,0,0,1,.664.664A.627.627,0,0,1-955.306,929.457Z" transform="translate(-21.402 -14.302)" fill="#0f3727"/>
  </g>
</svg>
