<svg xmlns="http://www.w3.org/2000/svg" width="45.179" height="39.259" viewBox="0 0 45.179 39.259">
  <path id="Path_7553" data-name="Path 7553" d="M-3973.69-408.173c-.943,0-1.852,0-2.761,0-.577,0-.917-.29-.908-.754s.336-.722.89-.724c.921,0,1.843,0,2.786,0v-1.482c-.44,0-.881,0-1.322,0-.545-.007-.875-.291-.874-.742s.329-.734.878-.737q1.713-.007,3.425,0c.543,0,.876.293.874.742s-.336.728-.88.737c-.182,0-.364,0-.572,0v1.482c.427,0,.867,0,1.307,0,.548.006.879.283.885.731s-.328.739-.868.749c-.416.008-.833.008-1.249.013a.409.409,0,0,0-.07.017.775.775,0,0,0,.823.7q3.958.017,7.916,0a.83.83,0,0,0,.851-.86q.021-2.847,0-5.694a.837.837,0,0,0-.828-.837c-.323-.022-.648-.006-.971-.007h-.413c0,.694,0,1.353,0,2.011,0,.7-.248.953-.94.954q-1.644,0-3.287,0c-.719,0-.955-.245-.958-.983,0-.644,0-1.288,0-1.973a11.131,11.131,0,0,0-1.417.017,1.3,1.3,0,0,0-.652.379c-.375.361-.765.442-1.1.166a.761.761,0,0,1-.05-1.113,2.241,2.241,0,0,1,1.829-.934c2.654-.011,5.309-.033,7.961.018a6.645,6.645,0,0,1,1.676.5c.9-2.428,2.181-4.672,5.051-5.54a6.055,6.055,0,0,1-2.04-3.285,5.977,5.977,0,0,1,4.638-7.139,5.914,5.914,0,0,1,6.984,4.892,2.885,2.885,0,0,1,.062.917,1.146,1.146,0,0,1-.406.659c-.187.139-.305.24-.232.464a4.183,4.183,0,0,0,.478,1.327,1.552,1.552,0,0,1-.22,2.19,2.439,2.439,0,0,0-.507.773,2.584,2.584,0,0,1-2.3,1.691c.673.767,1.224,1.488,1.871,2.106a2.319,2.319,0,0,0,2.07.4,3.115,3.115,0,0,1,3.172,1.026c.079-.165.137-.3.2-.424a3.663,3.663,0,0,1,3-2.044c.723-.081,1.035.215,1.036.94q0,2.754,0,5.509c0,.717-.33,1.015-1.046.925-.347-.044-.687-.142-1.076-.225.044.127.074.237.118.341.777,1.812,1.56,3.622,2.328,5.438a.534.534,0,0,0,.558.4,5.909,5.909,0,0,1,5.779,6.272,5.944,5.944,0,0,1-6.313,5.555,5.972,5.972,0,0,1-5.486-5.138h-11.2a5.941,5.941,0,0,1-2.532,4.063,5.847,5.847,0,0,1-3.487,1.036,5.967,5.967,0,0,1-5.752-5.136c-.678,0-1.368,0-2.058,0s-.942-.264-.933-.961a13.452,13.452,0,0,1,1.447-5.967,4.776,4.776,0,0,1,.363-.59c.132-.189.285-.363.464-.589a3.506,3.506,0,0,0-.356-.039c-.972,0-1.944,0-2.917,0A2.437,2.437,0,0,1-3973.69-408.173Zm19.272,8.865a4.884,4.884,0,0,1-.726-3.308c.008-.354,0-.709,0-1.064a2.112,2.112,0,0,0-2.283-2.271c-2.111,0-4.224.026-6.334-.009a3.56,3.56,0,0,0-3.609,2.278,12.287,12.287,0,0,0-1.1,4.374Zm.928-14.744c-.237-.35-.557-.785-.836-1.245a.715.715,0,0,1,.233-1.01.718.718,0,0,1,1.008.244c.071.1.126.212.192.316a6.733,6.733,0,0,0,3.6,2.826,5.187,5.187,0,0,0,.542.131l.556-2.24a5.166,5.166,0,0,1-2.511-2.129c-.287-.4-.573-.8-.879-1.19a4.1,4.1,0,0,0-2.167-1.5,4.67,4.67,0,0,0-5.28,2.012,10.961,10.961,0,0,0-1.669,3.98c-.2.876-.309,1.77-.467,2.7h6.171Zm8.066,14.767c.733,0,1.442.021,2.149-.014a.817.817,0,0,0,.548-.293c.947-1.292,1.861-2.608,2.805-3.9a.622.622,0,0,0,.062-.71c-1.063-2.457-2.115-4.919-3.171-7.379a2.514,2.514,0,0,0-.123-.244l-3.613.83c.012.061.039.226.076.389.618,2.652,1.267,5.3,1.837,7.961a5.592,5.592,0,0,1-.027,1.958A6.8,6.8,0,0,1-3945.423-399.284Zm-3.156-27.405a4.389,4.389,0,0,0-4.63-3.692,4.535,4.535,0,0,0-4.144,4.8c.161,2.011,2.07,4.06,3.693,3.935,0-.644-.005-1.291,0-1.937a3.045,3.045,0,0,1,3.107-3.1C-3949.907-426.694-3949.261-426.689-3948.58-426.689Zm-2.139,24.421c0-1.421.067-2.809-.018-4.188a3.154,3.154,0,0,0-2.426-2.981,4.866,4.866,0,0,0-1.362-.208c-2.05-.022-4.1-.01-6.149-.009-.119,0-.237.011-.364.017-.033.745-.064,1.459-.1,2.2,1.275,0,2.583-.007,3.892,0a3.558,3.558,0,0,1,3.58,3.584c0,.52,0,1.039,0,1.578Zm-2.687-8.813c.2.069.269.1.342.117a4.827,4.827,0,0,1,3.848,4.83c0,1.2-.007,2.405.009,3.607,0,.148.1.391.2.426a2.926,2.926,0,0,1,1.981,2.294,4.86,4.86,0,0,0,.47-.576,2.586,2.586,0,0,0,.254-1.923c-.611-2.671-1.243-5.337-1.824-8.015-.136-.625-.338-1.021-1.05-1.042a2.379,2.379,0,0,1-.921-.286c-.767-.372-1.518-.778-2.351-1.209Zm13.544,10.034.061.059c.132-.073.259-.157.4-.218a2.862,2.862,0,0,1,3.132.339,2.794,2.794,0,0,1,1.074,2.874,2.934,2.934,0,0,1-2.646,2.4,3.008,3.008,0,0,1-3.017-1.862c-.059-.139-.213-.319-.338-.332a12.3,12.3,0,0,0-1.249-.016,1.216,1.216,0,0,0,0,.177,4.465,4.465,0,0,0,4.856,3.5,4.468,4.468,0,0,0,3.91-4.843,4.457,4.457,0,0,0-4.579-4.01.515.515,0,0,0-.339.172C-3939.03-402.229-3939.443-401.636-3939.862-401.047Zm-16.866,3.244c-.435,0-.836-.017-1.234.011a.455.455,0,0,0-.319.233,2.868,2.868,0,0,1-2.784,1.929,2.863,2.863,0,0,1-2.787-1.923.42.42,0,0,0-.27-.238c-.425-.026-.853-.011-1.283-.011a4.392,4.392,0,0,0,4.31,3.7A4.395,4.395,0,0,0-3956.728-397.8Zm7.368-27.395c-.416,0-.939-.036-1.456.009a1.508,1.508,0,0,0-1.355,1.459c-.026.892-.013,1.785,0,2.677,0,.111.082.294.164.318a8.133,8.133,0,0,0,1.427.347c.875.1,1.225-.241,1.378-1.108a1.691,1.691,0,0,1,.4-.67,1.473,1.473,0,0,1,.339-.266Zm-4.108,24.434a2.092,2.092,0,0,0,2,1.476c.816.013,1.631,0,2.447,0a4.924,4.924,0,0,0,.521-.058,1.342,1.342,0,0,0-1.288-1.408C-3951-400.781-3952.215-400.764-3953.469-400.764Zm9.663-12.587c-.476-1.411-1.146-1.857-2.173-1.495a1.833,1.833,0,0,0-1.086,2.222A6.57,6.57,0,0,0-3943.806-413.35Zm3.453-2.768a2.067,2.067,0,0,0-1.457,2.022,2.061,2.061,0,0,0,1.457,2.016Zm1.022,18.315a1.4,1.4,0,0,0,1.666.667,1.467,1.467,0,0,0,1.039-1.515,1.488,1.488,0,0,0-1.2-1.348,1.322,1.322,0,0,0-1.469.715c.383,0,.748-.008,1.112,0a.747.747,0,0,1,.813.752.745.745,0,0,1-.8.724C-3938.533-397.795-3938.9-397.8-3939.331-397.8Zm-29.123-15.586h2.165v-1.426h-2.165Zm8.616,15.612h-2.475a1.416,1.416,0,0,0,1.219.7A1.371,1.371,0,0,0-3959.838-397.777Z" transform="translate(3977.359 431.876)"/>
</svg>
