<svg xmlns="http://www.w3.org/2000/svg" width="44.347" height="44.366" viewBox="0 0 44.347 44.366">
  <path id="Path_7965" data-name="Path 7965" d="M-494.375-132.942v43.751h-27.63a6.393,6.393,0,0,1-3.266-1.984,2.808,2.808,0,0,1-2.1,1.984h-9.181c-1.719-.65-2.165-1.306-2.165-3.183q0-6.649,0-13.3a2.614,2.614,0,0,1,2.824-2.839c2.584,0,5.168.015,7.752-.008a2.849,2.849,0,0,1,2.479,1.127c.124-.118.239-.223.35-.333.97-.969,1.927-1.953,2.917-2.9a.88.88,0,0,0,.277-1.006q-2.051-7.553-4.057-15.118c-.2-.73.012-1.1.729-1.3,1.029-.281,2.061-.55,3.091-.826l4.946-1.329c0-.74,0-1.46,0-2.18,0-.892.272-1.166,1.161-1.166q10.35,0,20.7-.009A1.184,1.184,0,0,1-494.375-132.942Zm-19.613,25.366v-.6q0-8.078,0-16.155c0-.159-.005-.318.007-.476a.845.845,0,0,1,.853-.856,2.318,2.318,0,0,0,2.328-2.265.9.9,0,0,1,1.051-.937q3.854,0,7.707,0a.9.9,0,0,1,1.05.938,2.318,2.318,0,0,0,2.329,2.265.823.823,0,0,1,.848.857c.019,1.155.029,2.311-.011,3.464a1.07,1.07,0,0,1-.385.716.831.831,0,0,1-1.312-.721c-.033-.749-.022-1.5-.006-2.252a.466.466,0,0,0-.388-.545,3.975,3.975,0,0,1-2.564-2.456c-.066-.17-.116-.346-.169-.5h-6.5a4.051,4.051,0,0,1-2.7,2.952.5.5,0,0,0-.413.573q.016,7.774.008,15.549c0,.151.015.3.022.447h4.555c-2.016-1.365-2.729-2.965-2.208-4.883a4.161,4.161,0,0,1,3.79-3.042,4.149,4.149,0,0,1,4.049,2.623,4.028,4.028,0,0,1,0,3.039,4.519,4.519,0,0,1-2.041,2.269c1.2-.017,2.379-.06,3.285.891a2.969,2.969,0,0,1,.633,3.282l.631.046v-.543q0-4.461,0-8.922c0-.816.307-1.237.887-1.224.565.013.844.413.844,1.218,0,3.378,0,6.757.009,10.135a1.791,1.791,0,0,0,.208.808,2.959,2.959,0,0,1-1.386,4.126l-.375.17a3.026,3.026,0,0,1-2.921,4.28,3.077,3.077,0,0,1,0,2.364h6.131V-131.78h-19.52v24.2Zm-7.427-1.519c-.064.025-.1.029-.115.047-1.176,1.172-2.354,2.341-3.518,3.525a.712.712,0,0,0-.155.459q-.013,5.674,0,11.348a.834.834,0,0,0,.255.536c.526.494,1.094.942,1.622,1.433a3.062,3.062,0,0,0,2.2.828q7.9-.019,15.806-.007c.144,0,.29.006.433-.008a1.193,1.193,0,0,0,1.075-.919,1.2,1.2,0,0,0-1.274-1.5c-2.035-.007-4.071,0-6.106,0-.115,0-.231,0-.346,0a.888.888,0,0,1-.936-.871.88.88,0,0,1,.946-.859c1.747-.006,3.493,0,5.24,0,1.371,0,2.743,0,4.114,0a1.238,1.238,0,0,0,1.363-1.2,1.245,1.245,0,0,0-1.38-1.226h-8.964c-.1,0-.2,0-.3,0-.617-.008-1.024-.359-1.016-.877a.893.893,0,0,1,1-.854q5.478,0,10.956,0a4.345,4.345,0,0,0,.476-.01,1.222,1.222,0,0,0,1.066-.989,1.151,1.151,0,0,0-.626-1.264,2.124,2.124,0,0,0-.835-.156q-5.413-.015-10.826-.007a3.52,3.52,0,0,1-.433-.009.876.876,0,0,1-.774-.852.876.876,0,0,1,.763-.861,3.3,3.3,0,0,1,.432-.011q4.157,0,8.314,0a1.222,1.222,0,0,0,1.295-1.221,1.231,1.231,0,0,0-1.273-1.2c-.13,0-.26,0-.39,0h-16.369a.935.935,0,0,1-1.1-.856Zm-9.684,2.323v.531q0,4.547,0,9.094a3.756,3.756,0,0,1-.009.433.85.85,0,0,1-.844.771.85.85,0,0,1-.872-.789,4.172,4.172,0,0,1-.007-.433q0-4.569,0-9.138v-.477c-1.072,0-2.081,0-3.089,0-.764,0-1.067.31-1.067,1.085q0,6.842,0,13.685c0,.774.3,1.081,1.07,1.083q2.121,0,4.243,0c1.256,0,2.511,0,3.767,0a.849.849,0,0,0,.958-.839q.015-7.081,0-14.161a.807.807,0,0,0-.776-.838C-528.832-106.788-529.941-106.772-531.1-106.772Zm13.591-.806c-.043-.177-.078-.33-.119-.482q-1.582-5.865-3.165-11.73c-.219-.811-.069-1.1.708-1.389a2.351,2.351,0,0,0,1.529-2.576c-.142-.9-.015-1.1.863-1.382.108-.035.264-.162.266-.249.019-.991.012-1.983.012-3.022l-6.933,1.859,5.12,18.971Zm11.6-6.208a2.434,2.434,0,0,0-2.406,2.436,2.437,2.437,0,0,0,2.4,2.4,2.438,2.438,0,0,0,2.428-2.415A2.436,2.436,0,0,0-505.9-113.786Zm-11.522-7.27c-.026,0-.062-.02-.074-.01-.446.4-.9.8-1.327,1.216a.437.437,0,0,0-.081.358c.214.85.448,1.7.676,2.541q.374,1.383.748,2.767l.057-.013Z" transform="translate(538.722 133.557)" fill="#100f0e"/>
</svg>
