<svg xmlns="http://www.w3.org/2000/svg" width="26.37" height="40.186" viewBox="0 0 26.37 40.186">
  <g id="Group_3020" data-name="Group 3020" transform="translate(829.946 -1737.597)">
    <path id="Path_7999" data-name="Path 7999" d="M-806.169,1737.6c.206.073.416.139.618.221a3.105,3.105,0,0,1,1.969,2.9q0,17.2.006,34.4a.831.831,0,0,1-.356.735c-.768.566-1.527,1.144-2.293,1.712a.67.67,0,0,1-.987,0c-.578-.427-1.164-.845-1.723-1.3a.4.4,0,0,0-.6.008c-.509.409-1.04.79-1.564,1.181-.581.433-.7.433-1.273.007-.544-.407-1.094-.807-1.627-1.228a.341.341,0,0,0-.506,0c-.576.451-1.166.884-1.755,1.318a.678.678,0,0,1-1.017-.01c-.588-.436-1.177-.87-1.755-1.318a.327.327,0,0,0-.477,0c-.588.457-1.187.9-1.786,1.343a.669.669,0,0,1-.987-.006c-.734-.546-1.456-1.109-2.2-1.64a.977.977,0,0,1-.449-.885q.013-13.415.007-26.829v-.566h-4.156c-.7,0-.866-.171-.866-.884q0-2.962,0-5.923a3.113,3.113,0,0,1,2.454-3.164.649.649,0,0,0,.134-.071Zm-18.117,1.255a3.694,3.694,0,0,1,.624,2.3q-.015,16.633-.007,33.266a.888.888,0,0,0,.005.273.84.84,0,0,0,.2.383c.469.375.965.716,1.435,1.091a.342.342,0,0,0,.507-.009c.576-.451,1.167-.883,1.755-1.318a.67.67,0,0,1,.986-.006c.6.442,1.2.886,1.785,1.343a.327.327,0,0,0,.477,0c.556-.434,1.125-.853,1.69-1.275.507-.379.662-.377,1.179.01.554.415,1.114.823,1.657,1.252a.343.343,0,0,0,.507,0c.565-.444,1.146-.868,1.723-1.3.449-.334.624-.335,1.083,0,.567.419,1.138.835,1.691,1.273a.356.356,0,0,0,.537.01c.414-.34.842-.665,1.286-.963a.711.711,0,0,0,.34-.675q-.012-16.731-.007-33.462a1.947,1.947,0,0,0-2.19-2.2h-17.261Zm-.645,7.516c0-1.938.042-3.844-.015-5.748a1.825,1.825,0,0,0-2.239-1.71,1.871,1.871,0,0,0-1.5,1.927c-.006,1.607,0,3.214,0,4.821v.709Z" fill="#0f3727"/>
    <path id="Path_8000" data-name="Path 8000" d="M-723.458,1773.174c.079.029.165.053.244.091a.59.59,0,0,1,.348.711.573.573,0,0,1-.586.482c-.471.008-.942,0-1.412,0h-8.474c-.487,0-.745-.164-.805-.508-.065-.371.126-.62.608-.78a5,5,0,0,1,1.478-3.511,5.048,5.048,0,0,1,2.66-1.4.46.46,0,0,0,.273-.239.652.652,0,0,1,.615-.46.635.635,0,0,1,.634.484.374.374,0,0,0,.216.212A5.022,5.022,0,0,1-723.458,1773.174Zm-1.292.012a3.778,3.778,0,0,0-3.822-3.742,3.759,3.759,0,0,0-3.667,3.742Z" transform="translate(-85.751 -26.822)" fill="#0f3727"/>
    <path id="Path_8001" data-name="Path 8001" d="M-741.324,1941.234c1.333,0,2.665,0,4,0a.608.608,0,0,1,.663.53.6.6,0,0,1-.4.683.971.971,0,0,1-.346.038q-3.959,0-7.917,0c-.474,0-.736-.22-.745-.611-.009-.412.255-.641.752-.642Q-743.322,1941.232-741.324,1941.234Z" transform="translate(-75.083 -182.296)" fill="#0f3727"/>
    <path id="Path_8002" data-name="Path 8002" d="M-741.363,1978.427q-1.979,0-3.958,0c-.5,0-.761-.23-.752-.643.008-.391.27-.61.745-.61q3.959,0,7.917,0c.5,0,.762.23.752.642-.009.391-.272.61-.746.611Q-739.383,1978.429-741.363,1978.427Z" transform="translate(-75.083 -214.468)" fill="#0f3727"/>
    <path id="Path_8003" data-name="Path 8003" d="M-741.047,2014.358c-1.346,0-2.691.015-4.036-.015a.806.806,0,0,1-.584-.343.749.749,0,0,1,.053-.64.7.7,0,0,1,.528-.245c2.691-.015,5.382-.012,8.073-.009a.608.608,0,0,1,.672.643.609.609,0,0,1-.67.607C-738.356,2014.361-739.7,2014.358-741.047,2014.358Z" transform="translate(-75.401 -246.633)" fill="#0f3727"/>
    <path id="Path_8004" data-name="Path 8004" d="M-741.5,2050.3c-1.333,0-2.665,0-4,0a.61.61,0,0,1-.637-.419.569.569,0,0,1,.2-.7.811.811,0,0,1,.434-.132q4.037-.011,8.074,0a.607.607,0,0,1,.67.605.61.61,0,0,1-.671.645C-738.781,2050.3-740.14,2050.3-741.5,2050.3Z" transform="translate(-74.99 -278.808)" fill="#0f3727"/>
    <path id="Path_8005" data-name="Path 8005" d="M-682.413,1858.638c-1.006,0-2.011,0-3.017,0-.47,0-.733-.225-.738-.618s.255-.635.719-.635q3.037,0,6.073,0c.47,0,.734.224.739.616.005.407-.263.636-.759.637Q-680.9,1858.641-682.413,1858.638Z" transform="translate(-128.71 -107.233)" fill="#0f3727"/>
    <path id="Path_8006" data-name="Path 8006" d="M-682.4,1906.554c-1.006,0-2.011,0-3.017,0-.494,0-.759-.233-.749-.645.01-.391.271-.607.747-.608q3.017,0,6.034,0c.494,0,.761.233.75.644-.01.39-.273.608-.748.609C-680.392,1906.556-681.4,1906.554-682.4,1906.554Z" transform="translate(-128.709 -150.127)" fill="#0f3727"/>
    <path id="Path_8007" data-name="Path 8007" d="M-683.072,1882.592c-.8,0-1.593,0-2.39,0-.439,0-.7-.23-.707-.608-.01-.4.252-.643.71-.644q2.429,0,4.858,0c.44,0,.7.229.708.607.01.4-.254.643-.711.645C-681.427,1882.6-682.25,1882.592-683.072,1882.592Z" transform="translate(-128.709 -128.676)" fill="#0f3727"/>
    <path id="Path_8008" data-name="Path 8008" d="M-642.68,1942.452c-.313,0-.626.009-.939,0a.6.6,0,0,1-.615-.619.594.594,0,0,1,.6-.628c.639-.013,1.278-.012,1.917,0a.6.6,0,0,1,.616.617.6.6,0,0,1-.6.63C-642.028,1942.462-642.354,1942.452-642.68,1942.452Z" transform="translate(-166.249 -182.26)" fill="#0f3727"/>
    <path id="Path_8009" data-name="Path 8009" d="M-642.687,1978.388c-.313,0-.626.01-.939,0a.6.6,0,0,1-.608-.625.6.6,0,0,1,.61-.621q.958-.017,1.917,0a.6.6,0,0,1,.609.624.6.6,0,0,1-.612.623C-642.035,1978.4-642.361,1978.388-642.687,1978.388Z" transform="translate(-166.25 -214.43)" fill="#0f3727"/>
    <path id="Path_8010" data-name="Path 8010" d="M-642.669,2013.09c.313,0,.626-.008.939,0a.605.605,0,0,1,.631.6.6.6,0,0,1-.629.645q-.939.016-1.878,0a.6.6,0,0,1-.63-.643.609.609,0,0,1,.628-.607h.939Z" transform="translate(-166.248 -246.619)" fill="#0f3727"/>
    <path id="Path_8011" data-name="Path 8011" d="M-642.687,2050.261c-.313,0-.626.01-.939,0a.6.6,0,0,1-.608-.626.6.6,0,0,1,.61-.621q.958-.017,1.917,0a.6.6,0,0,1,.609.624.612.612,0,0,1-.612.626h-.978Z" transform="translate(-166.25 -278.77)" fill="#0f3727"/>
    <g id="Group_3019" data-name="Group 3019" transform="translate(-821.006 1749.863)">
      <path id="Path_8012" data-name="Path 8012" d="M-744.394,1856.449h1.21l.333-1.519a.365.365,0,0,1,.356-.286h.144a.365.365,0,0,1,.356.443l-.3,1.362h1.673l.333-1.556a.315.315,0,0,1,.308-.249h.247a.315.315,0,0,1,.308.381l-.3,1.424h.529a.272.272,0,0,1,.273.272v.346a.272.272,0,0,1-.273.272h-.7l-.3,1.428h1a.272.272,0,0,1,.272.272v.347a.272.272,0,0,1-.272.272h-1.166l-.346,1.6a.24.24,0,0,1-.234.189h-.4a.24.24,0,0,1-.234-.291l.328-1.5h-1.692l-.324,1.58a.264.264,0,0,1-.258.211h-.359a.264.264,0,0,1-.258-.319l.314-1.472h-.522a.279.279,0,0,1-.279-.279v-.332a.279.279,0,0,1,.279-.279h.706l.3-1.428h-1.04a.242.242,0,0,1-.241-.241v-.408A.241.241,0,0,1-744.394,1856.449Zm1.931.891-.3,1.423h1.678l.292-1.423Z" transform="translate(744.635 -1854.644)" fill="#0f3727"/>
    </g>
  </g>
</svg>
