<svg xmlns="http://www.w3.org/2000/svg" width="12.401" height="12.404" viewBox="0 0 12.401 12.404">
  <g id="Group_12" data-name="Group 12" transform="translate(334.723 477.118)">
    <g id="Group_11" data-name="Group 11" transform="translate(-334.723 -477.118)">
      <path id="Path_35" data-name="Path 35" d="M-322.322-467.126v.319a1.3,1.3,0,0,1-.363.65c-.2.193-.41.392-.608.585l-.318.308a1.851,1.851,0,0,1-.887.482c-.075.017-.151.032-.226.047l-.1.02h-.516c-.087-.018-.176-.035-.261-.052-.19-.036-.385-.074-.573-.128a7.382,7.382,0,0,1-1.943-.9,17.6,17.6,0,0,1-5.667-5.768,6.567,6.567,0,0,1-.875-2.176,2.789,2.789,0,0,1,.008-1.206,1.9,1.9,0,0,1,.482-.877l.214-.221c.221-.229.449-.466.676-.7a1.153,1.153,0,0,1,.845-.374,1.158,1.158,0,0,1,.83.413c.581.648,1.109,1.24,1.614,1.808a1.084,1.084,0,0,1,.042,1.479l-.282.354c-.094.118-.188.235-.282.353a.657.657,0,0,0-.037.83,9.34,9.34,0,0,0,3,3,.659.659,0,0,0,.83-.041c.139-.11.277-.22.415-.331l.291-.233a1.088,1.088,0,0,1,1.47.037q.416.369.83.741c.329.295.669.6,1.006.9a1.241,1.241,0,0,1,.387.68Z" transform="translate(334.723 477.118)"/>
    </g>
  </g>
</svg>
