<svg xmlns="http://www.w3.org/2000/svg" width="31.24" height="37.135" viewBox="0 0 31.24 37.135">
  <g id="Group_2934" data-name="Group 2934" transform="translate(1177.891 -280.31)">
    <path id="Path_7557" data-name="Path 7557" d="M-948.99,290.731c0,1.231,0,2.463,0,3.694a.967.967,0,0,1-1.12,1,.988.988,0,0,1-.844-1.032c-.008-1.337-.01-2.674-.014-4.011,0-.37.01-.74.012-1.11a3.821,3.821,0,0,0-.826-2.407,4.029,4.029,0,0,0-3.192-1.61l0-1.946h.7c.394.137.812.174,1.209.311a6.043,6.043,0,0,1,4.079,5.647c0,.371.008.742.012,1.114C-948.982,290.5-948.989,290.614-948.99,290.731Z" transform="translate(-207.258 -3)" fill="#fff"/>
    <path id="Path_7558" data-name="Path 7558" d="M-1043.729,285.256a4.052,4.052,0,0,0-4.051,3.474,8.46,8.46,0,0,0-.027,1.653c0,.127-.01.254-.01.381,0,1.21,0,2.421,0,3.631a.969.969,0,0,1-1.04,1.03.987.987,0,0,1-.918-1.061q-.009-1.99-.011-3.982a17.539,17.539,0,0,1,.12-2.156,6.048,6.048,0,0,1,4.7-4.8c.138-.027.3,0,.41-.121h.829Q-1043.731,284.283-1043.729,285.256Z" transform="translate(-118.505 -3)" fill="#fff"/>
    <path id="Path_7559" data-name="Path 7559" d="M-1148.294,419.1a.911.911,0,0,1-.768.442q-6.592,0-13.185-.006c-1.338,0-2.676.008-4.014.008q-4.491,0-8.983,0a1.033,1.033,0,0,1-1.13-1.309c.14-1.114.243-2.234.362-3.35q.211-1.991.422-3.983.172-1.628.341-3.257c.142-1.349.288-2.7.429-4.046.137-1.307.266-2.614.4-3.921.169-1.623.335-3.246.517-4.868a.95.95,0,0,1,1.011-.825c1.529,0,3.058,0,4.587,0,0,1.327,1.972,1.591,1.972.381,0-.127.006-.254.01-.381l4.072.009,4.013-.01c0,1.337,1.979,1.579,1.98.348,0-.116.008-.233.011-.349h4.427c.816,0,1.143.308,1.228,1.128.23,2.223.468,4.445.7,6.667.2,1.928.392,3.856.591,5.784q.313,3.034.636,6.066c.16,1.506.333,3.01.489,4.517A1.342,1.342,0,0,1-1148.294,419.1Z" transform="translate(0 -103.605)" fill="none" stroke="#fff" stroke-miterlimit="10" stroke-width="3"/>
  </g>
</svg>
