<svg id="Group_137" data-name="Group 137" xmlns="http://www.w3.org/2000/svg" width="19.015" height="23.256" viewBox="0 0 19.015 23.256">
  <path id="Path_233" data-name="Path 233" d="M-4039.934-1197.416q0-2.922,0-5.843a1.059,1.059,0,0,1,.886-1.138,1.052,1.052,0,0,1,1.227.961c.007.09,0,.182,0,.272q0,5.707,0,11.414a2.021,2.021,0,0,0,2.13,2.126h8.417a2.023,2.023,0,0,0,2.13-2.126q0-5.756,0-11.513a1.059,1.059,0,0,1,.838-1.126,1.041,1.041,0,0,1,1.255.86,2.084,2.084,0,0,1,.023.345q0,5.732,0,11.464a4.132,4.132,0,0,1-3.458,4.151,4.18,4.18,0,0,1-.739.06q-4.258.006-8.516,0a4.144,4.144,0,0,1-4.2-4.189Q-4039.937-1194.556-4039.934-1197.416Z" transform="translate(4040.986 1210.761)" fill="#707070"/>
  <path id="Path_234" data-name="Path 234" d="M-4042.1-1297.219h.753c1.138,0,2.277-.006,3.416,0a1.058,1.058,0,0,1,1.071,1.362,1.055,1.055,0,0,1-.921.749c-.057,0-.115,0-.173,0h-16.73a1.062,1.062,0,0,1-1.143-1.067,1.064,1.064,0,0,1,1.14-1.049c1.271,0,2.541,0,3.811,0h.335v-.278c0-.594,0-1.188,0-1.782a1.045,1.045,0,0,1,1.1-1.107q3.119-.009,6.237,0a1.044,1.044,0,0,1,1.1,1.1C-4042.093-1298.607-4042.1-1297.932-4042.1-1297.219Zm-6.322-.021h4.2v-1.017h-4.2Z" transform="translate(4055.826 1300.391)" fill="#707070"/>
  <path id="Path_235" data-name="Path 235" d="M-3960.016-1167.813c0-1.229,0-2.458,0-3.687a1.046,1.046,0,0,1,.869-1.027,1.039,1.039,0,0,1,1.137.6,1.4,1.4,0,0,1,.1.527q.01,3.613,0,7.226a1.063,1.063,0,0,1-1.072,1.141,1.062,1.062,0,0,1-1.043-1.141Q-3960.018-1165.995-3960.016-1167.813Z" transform="translate(3966.355 1181.001)" fill="#707070"/>
  <path id="Path_236" data-name="Path 236" d="M-3894.084-1167.737c0,1.229,0,2.458,0,3.687a1.036,1.036,0,0,1-.78,1.021,1.013,1.013,0,0,1-1.168-.472,1.357,1.357,0,0,1-.159-.611q-.016-3.638,0-7.275a1.055,1.055,0,0,1,1.076-1.11,1.058,1.058,0,0,1,1.038,1.122C-3894.082-1170.162-3894.084-1168.949-3894.084-1167.737Z" transform="translate(3906.76 1180.955)" fill="#707070"/>
</svg>
