<svg xmlns="http://www.w3.org/2000/svg" width="27.642" height="35.818" viewBox="0 0 27.642 35.818">
  <g id="Group_3021" data-name="Group 3021" transform="translate(1266.374 -1016.09)">
    <path id="Path_8013" data-name="Path 8013" d="M-1254.373,1051.908c-.532-.047-1.064-.1-1.6-.141a24.353,24.353,0,0,1-7.1-1.517,7.055,7.055,0,0,1-2.365-1.452,2.624,2.624,0,0,1-.019-4.008,6.882,6.882,0,0,1,2.915-1.665c1.331-.4,2.7-.68,4.051-1.011.123-.03.247-.054.4-.087-.508-.732-1.014-1.441-1.5-2.163a40.686,40.686,0,0,1-4.254-7.6,10.6,10.6,0,0,1-.892-4.411,11.9,11.9,0,0,1,3.97-8.568,11.9,11.9,0,0,1,8.966-3.178,12.282,12.282,0,0,1,11.138,9.435,11.464,11.464,0,0,1-.88,7.443,49.647,49.647,0,0,1-4.86,8.183c-.193.275-.389.548-.606.854.667.13,1.3.238,1.932.377a13.412,13.412,0,0,1,4.6,1.739,5.057,5.057,0,0,1,.934.782,2.585,2.585,0,0,1-.089,3.829,7.839,7.839,0,0,1-3.064,1.753,24.142,24.142,0,0,1-5.719,1.193c-.775.076-1.551.142-2.326.212Zm1.81-6.371c.1-.11.155-.168.2-.233,1.637-2.193,3.312-4.359,4.9-6.589a36.778,36.778,0,0,0,3.963-6.884,9.024,9.024,0,0,0,.761-5.13,9.918,9.918,0,0,0-11.006-8.276,9.621,9.621,0,0,0-7.965,6.02,8.075,8.075,0,0,0-.2,6.547,35.522,35.522,0,0,0,1.561,3.347,69.74,69.74,0,0,0,6.151,9.11C-1253.665,1044.138-1253.123,1044.82-1252.563,1045.536Zm.844,4.152c1.031-.1,2.9-.222,4.756-.459a14.478,14.478,0,0,0,4.543-1.279,7.3,7.3,0,0,0,1.236-.833.4.4,0,0,0-.013-.682,7.407,7.407,0,0,0-1.215-.8,18.77,18.77,0,0,0-5.923-1.478.531.531,0,0,0-.395.187c-.948,1.18-1.879,2.373-2.819,3.56a1.152,1.152,0,0,1-2,0c-.937-1.189-1.866-2.384-2.813-3.564a.564.564,0,0,0-.428-.184,22.36,22.36,0,0,0-4.466.9,6.982,6.982,0,0,0-2.569,1.288c-.371.33-.364.523-.011.867a2.458,2.458,0,0,0,.268.223,8.021,8.021,0,0,0,2.428,1.112A33.522,33.522,0,0,0-1251.719,1049.688Z" transform="translate(0 0)" fill="#0f3727"/>
    <path id="Path_8014" data-name="Path 8014" d="M-1224.573,1043.733a7.41,7.41,0,0,1-7.549,7.363,7.423,7.423,0,0,1-7.217-7.41,7.367,7.367,0,0,1,7.544-7.346A7.386,7.386,0,0,1-1224.573,1043.733Zm-7.385,5.094a5.107,5.107,0,0,0,5.115-5.023,5.112,5.112,0,0,0-5.028-5.22,5.112,5.112,0,0,0-5.2,5.045A5.1,5.1,0,0,0-1231.958,1048.827Z" transform="translate(-20.596 -15.426)" fill="#0f3727"/>
  </g>
</svg>
