<svg xmlns="http://www.w3.org/2000/svg" width="28.811" height="25.015" viewBox="0 0 28.811 25.015">
  <g id="Group_3004" data-name="Group 3004" transform="translate(-681.271 -49.409)">
    <path id="Path_7971" data-name="Path 7971" d="M714.25,57.783c2.358-2.358,3.057-5.483,1.561-6.978s-4.62-.8-6.978,1.561a10.457,10.457,0,0,0-2.342,3.128c-.5,1.171.018,2.362-.291,3.531a3.267,3.267,0,0,1-.848,1.393l-.006-.007s-1.97,2.205-10.538,9.905c0,0-3.417,2.635-2.814,4.3l-.022.023.057.036c.011.019.023.038.035.057l.023-.022c1.4.709,4.253-2.924,4.253-2.924,6.936-7.687,9.487-10.02,9.889-10.377l.005.006a3.28,3.28,0,0,1,2.55-.995,2.794,2.794,0,0,0,.43-.049C710.522,60.535,712.168,59.866,714.25,57.783Z" transform="translate(-6.517 -0.372)" fill="#0f3727"/>
    <path id="Path_7972" data-name="Path 7972" d="M691.028,55.163l-6.7-5.677s-.166-.147-.278-.035c0,0-.143.143.05.328l6.116,6.132a.317.317,0,0,1,.04.446.339.339,0,0,1-.4.01l-6.5-5.884c-.181-.145-.276-.017-.276-.017a.184.184,0,0,0-.005.255L689.259,57a.258.258,0,0,1,.008.408.277.277,0,0,1-.408-.008l-6.276-6.188a.185.185,0,0,0-.255.005s-.128.1.017.276l5.884,6.5a.339.339,0,0,1-.011.4.317.317,0,0,1-.446-.04l-6.132-6.116c-.184-.194-.328-.05-.328-.05-.112.112.035.278.035.278l5.677,6.7a4.245,4.245,0,0,0,1.413,1.012,3.067,3.067,0,0,0,1.3.34,4.95,4.95,0,0,1,1.259.007,3.121,3.121,0,0,1,1.364.819l-.007.006s2.152,1.916,9.643,10.276c0,0,2.557,3.339,4.2,2.723l.022.021c.012-.019.024-.038.036-.057l.057-.036-.021-.022c.718-1.393-2.832-4.161-2.832-4.161-7.5-6.748-9.769-9.236-10.116-9.629l.005-.005a3.159,3.159,0,0,1-.949-2.5,3.371,3.371,0,0,0-.381-1.417A4.189,4.189,0,0,0,691.028,55.163Z" transform="translate(0 0)" fill="#0f3727"/>
  </g>
</svg>
