<svg xmlns="http://www.w3.org/2000/svg" width="8.124" height="10.527" viewBox="0 0 8.124 10.527">
  <g id="Group_3026" data-name="Group 3026" transform="translate(1266.374 -1016.09)">
    <path id="Path_8013" data-name="Path 8013" d="M-1262.847,1026.617l-.469-.042a7.158,7.158,0,0,1-2.087-.446,2.073,2.073,0,0,1-.7-.427.771.771,0,0,1-.005-1.178,2.025,2.025,0,0,1,.857-.489c.391-.118.793-.2,1.191-.3l.117-.026c-.149-.215-.3-.423-.441-.636a11.971,11.971,0,0,1-1.25-2.233,3.116,3.116,0,0,1-.262-1.3,3.5,3.5,0,0,1,1.167-2.518,3.5,3.5,0,0,1,2.635-.934,3.609,3.609,0,0,1,3.274,2.773,3.369,3.369,0,0,1-.259,2.188,14.584,14.584,0,0,1-1.428,2.405c-.057.081-.114.161-.178.251.2.038.383.07.568.111a3.942,3.942,0,0,1,1.353.511,1.489,1.489,0,0,1,.275.23.76.76,0,0,1-.026,1.125,2.3,2.3,0,0,1-.9.515,7.1,7.1,0,0,1-1.681.351c-.228.022-.456.042-.683.062Zm.532-1.873c.029-.032.046-.049.06-.069.481-.645.974-1.281,1.439-1.936a10.821,10.821,0,0,0,1.165-2.023,2.653,2.653,0,0,0,.224-1.508,2.915,2.915,0,0,0-3.235-2.432,2.828,2.828,0,0,0-2.341,1.769,2.373,2.373,0,0,0-.058,1.924,10.44,10.44,0,0,0,.459.984,20.5,20.5,0,0,0,1.808,2.678C-1262.639,1024.333-1262.48,1024.534-1262.315,1024.744Zm.248,1.22c.3-.028.852-.065,1.4-.135a4.254,4.254,0,0,0,1.335-.376,2.139,2.139,0,0,0,.363-.245.116.116,0,0,0,0-.2,2.165,2.165,0,0,0-.357-.236,5.521,5.521,0,0,0-1.741-.434.156.156,0,0,0-.116.055c-.279.347-.552.7-.828,1.046a.338.338,0,0,1-.589,0c-.275-.349-.548-.7-.827-1.048a.166.166,0,0,0-.126-.054,6.57,6.57,0,0,0-1.313.266,2.057,2.057,0,0,0-.755.378c-.109.1-.107.154,0,.255a.751.751,0,0,0,.079.066,2.36,2.36,0,0,0,.714.327A9.854,9.854,0,0,0-1262.067,1025.965Z" transform="translate(0 0)" fill="#fff"/>
    <path id="Path_8014" data-name="Path 8014" d="M-1235,1038.511a2.178,2.178,0,0,1-2.219,2.164,2.182,2.182,0,0,1-2.121-2.178,2.165,2.165,0,0,1,2.217-2.159A2.17,2.17,0,0,1-1235,1038.511Zm-2.17,1.5a1.5,1.5,0,0,0,1.5-1.476,1.5,1.5,0,0,0-1.478-1.534,1.5,1.5,0,0,0-1.529,1.483A1.5,1.5,0,0,0-1237.171,1040.009Z" transform="translate(-25.141 -18.831)" fill="#fff"/>
  </g>
</svg>
