<svg xmlns="http://www.w3.org/2000/svg" width="13.295" height="13.3" viewBox="0 0 13.295 13.3">
  <g id="Group_10" data-name="Group 10" transform="translate(-137.454 -216.398)">
    <g id="Group_9" data-name="Group 9" transform="translate(137.454 216.398)">
      <path id="Path_25" data-name="Path 25" d="M-597.881-49.756h-.831c-.085-.011-.17-.023-.255-.032a6.542,6.542,0,0,1-3.514-1.461,6.552,6.552,0,0,1-2.362-4.009c-.044-.241-.069-.486-.1-.73v-.831c.019-.158.035-.317.059-.475a6.5,6.5,0,0,1,2.252-4.131,6.411,6.411,0,0,1,5.549-1.51,6.643,6.643,0,0,1,5.255,8.075,6.684,6.684,0,0,1-5.321,5C-597.393-49.817-597.638-49.79-597.881-49.756Zm5.454-6.646a5.878,5.878,0,0,0-5.871-5.87,5.878,5.878,0,0,0-5.867,5.86,5.88,5.88,0,0,0,5.865,5.876A5.879,5.879,0,0,0-592.427-56.4Z" transform="translate(604.945 63.057)"/>
      <path id="Path_26" data-name="Path 26" d="M-424.574,51.7c0-.376,0-.753,0-1.129a.393.393,0,0,1,.39-.427.393.393,0,0,1,.388.428c0,.671,0,1.341,0,2.012a.273.273,0,0,0,.09.214q1.049,1.043,2.094,2.091a.41.41,0,0,1,.142.407.386.386,0,0,1-.616.217.941.941,0,0,1-.095-.088q-1.106-1.106-2.214-2.21a.561.561,0,0,1-.182-.437C-424.568,52.423-424.574,52.064-424.574,51.7Z" transform="translate(430.833 -46.222)"/>
      <path id="Path_27" data-name="Path 27" d="M-423.779-16.438c0,.125,0,.25,0,.375a.391.391,0,0,1-.395.394.389.389,0,0,1-.383-.393c0-.259,0-.518,0-.777a.388.388,0,0,1,.387-.388.39.39,0,0,1,.389.386C-423.776-16.705-423.779-16.571-423.779-16.438Z" transform="translate(430.817 18.815)"/>
      <path id="Path_28" data-name="Path 28" d="M-558.482,117.485c.129,0,.259,0,.388,0a.39.39,0,0,1,.39.385.387.387,0,0,1-.384.391q-.395.008-.79,0a.388.388,0,0,1-.384-.391.391.391,0,0,1,.39-.385C-558.741,117.482-558.611,117.485-558.482,117.485Z" transform="translate(560.845 -111.221)"/>
      <path id="Path_29" data-name="Path 29" d="M-311.412,118.234c-.125,0-.25,0-.375,0a.391.391,0,0,1-.4-.394.389.389,0,0,1,.392-.384q.388-.006.777,0a.388.388,0,0,1,.389.387.39.39,0,0,1-.385.39C-311.145,118.237-311.278,118.234-311.412,118.234Z" transform="translate(322.338 -111.192)"/>
      <path id="Path_30" data-name="Path 30" d="M-423.78,230.6c0,.125,0,.25,0,.375a.391.391,0,0,1-.395.394.389.389,0,0,1-.382-.393c0-.259,0-.518,0-.777a.388.388,0,0,1,.388-.387.39.39,0,0,1,.389.386C-423.776,230.332-423.78,230.466-423.78,230.6Z" transform="translate(430.818 -219.653)"/>
      <path id="Path_31" data-name="Path 31" d="M-328.443,213.167a.38.38,0,0,1-.388.384.387.387,0,0,1-.388-.388.4.4,0,0,1,.391-.388A.387.387,0,0,1-328.443,213.167Z" transform="translate(338.783 -203.208)"/>
      <path id="Path_32" data-name="Path 32" d="M-519.7,22.717a.38.38,0,0,1,.392-.38.386.386,0,0,1,.384.391.4.4,0,0,1-.4.385A.387.387,0,0,1-519.7,22.717Z" transform="translate(522.659 -19.374)"/>
      <path id="Path_33" data-name="Path 33" d="M-328.85,22.317a.383.383,0,0,1,.381.392.39.39,0,0,1-.392.385.4.4,0,0,1-.385-.4A.392.392,0,0,1-328.85,22.317Z" transform="translate(338.81 -19.356)"/>
      <path id="Path_34" data-name="Path 34" d="M-519.32,213.526a.384.384,0,0,1-.392-.381.391.391,0,0,1,.382-.4.4.4,0,0,1,.4.386A.39.39,0,0,1-519.32,213.526Z" transform="translate(522.668 -203.182)"/>
    </g>
  </g>
</svg>
