<svg id="Group_125" data-name="Group 125" xmlns="http://www.w3.org/2000/svg" width="24.742" height="24.737" viewBox="0 0 24.742 24.737">
  <path id="Path_224" data-name="Path 224" d="M-2910.332-437.7H-2928.5a1.23,1.23,0,0,0-.136-.042,3.685,3.685,0,0,1-3.028-2.713c-.049-.158-.082-.322-.122-.483V-459.2a.528.528,0,0,0,.043-.107,3.7,3.7,0,0,1,3.677-3.129q8.658,0,17.316,0a3.693,3.693,0,0,1,3.7,3.7q.006,8.668,0,17.336a3.7,3.7,0,0,1-2.586,3.528C-2909.861-437.8-2910.1-437.759-2910.332-437.7Zm-9.076-21.789q-2.862,0-5.724,0a3.619,3.619,0,0,0-3.707,3.712q0,5.711,0,11.422a3.619,3.619,0,0,0,3.713,3.707q5.7,0,11.4,0a3.622,3.622,0,0,0,3.731-3.737q0-5.687,0-11.374a3.621,3.621,0,0,0-3.738-3.73Z" transform="translate(2931.787 462.439)" fill="#0f3727"/>
  <path id="Path_225" data-name="Path 225" d="M-2854.634-377.3h-5.653a2.181,2.181,0,0,1-2.311-2.318q0-5.652,0-11.3a2.181,2.181,0,0,1,2.33-2.322h11.281a2.18,2.18,0,0,1,2.334,2.342q0,5.627,0,11.255A2.186,2.186,0,0,1-2849-377.3Zm5.084-7.964a5.081,5.081,0,0,0-5.06-5.08,5.082,5.082,0,0,0-5.088,5.052,5.083,5.083,0,0,0,5.072,5.093A5.082,5.082,0,0,0-2849.55-385.264Zm1.449-5.076a1.453,1.453,0,0,0-1.439-1.453,1.452,1.452,0,0,0-1.459,1.432,1.453,1.453,0,0,0,1.45,1.465A1.454,1.454,0,0,0-2848.1-390.341Z" transform="translate(2866.994 397.641)" fill="#0f3727"/>
  <path id="Path_226" data-name="Path 226" d="M-2790.519-324.82a3.63,3.63,0,0,1,3.608,3.639,3.631,3.631,0,0,1-3.639,3.608,3.632,3.632,0,0,1-3.608-3.639A3.63,3.63,0,0,1-2790.519-324.82Z" transform="translate(2802.905 333.566)" fill="#0f3727"/>
</svg>
