<svg xmlns="http://www.w3.org/2000/svg" width="35.163" height="35.219" viewBox="0 0 35.163 35.219">
  <g id="Group_2933" data-name="Group 2933" transform="translate(1040.793 -208.289)">
    <path id="Path_7554" data-name="Path 7554" d="M-988.216,243.508a4.091,4.091,0,0,1-2.526-1.586q-5.355-6.039-10.754-12.04c-.076-.085-.155-.166-.243-.26l-1.629,1.658c-.132-.123-.223-.2-.308-.289-4.008-4.007-8-8.032-12.031-12.016a7.888,7.888,0,0,1-2.274-6.737,13.052,13.052,0,0,1,.964-3.67.368.368,0,0,1,.35-.26,1.845,1.845,0,0,1,1.566.535q14.343,14.394,28.728,28.746a4.481,4.481,0,0,1,1.547,2.546v.55a.857.857,0,0,0-.054.158,2.717,2.717,0,0,1-1.154,1.981,6.38,6.38,0,0,1-1.157.545Z" transform="translate(-20.803 0)"/>
    <path id="Path_7555" data-name="Path 7555" d="M-1037.787,456.978c-.144-.026-.287-.057-.432-.076a3.091,3.091,0,0,1-2-4.829,5.135,5.135,0,0,1,.447-.52q4.745-4.752,9.5-9.5c.071-.071.148-.136.2-.186l4.357,4.366c-.05.052-.131.141-.217.226q-4.687,4.689-9.373,9.379a3.245,3.245,0,0,1-2.253,1.093.656.656,0,0,0-.163.048Z" transform="translate(0 -213.477)"/>
    <path id="Path_7556" data-name="Path 7556" d="M-812.253,210.151l1.167,1.169a.187.187,0,0,1,0,.265l-5.376,5.375,1.352,1.347a.187.187,0,0,0,.265,0l5.225-5.227a.188.188,0,0,1,.265,0l1.193,1.189a.187.187,0,0,1,0,.265l-5.26,5.255a.188.188,0,0,0,0,.265l1.166,1.164a.187.187,0,0,0,.265,0l5.241-5.243a.187.187,0,0,1,.266,0l1.234,1.247a.188.188,0,0,1-.028.285.518.518,0,0,0-.062.052c-2.2,2.191-4.412,4.364-6.573,6.59a5.932,5.932,0,0,1-4.024,1.962.177.177,0,0,0-.068.007c-.548.287-.858-.057-1.206-.411-1.3-1.324-2.615-2.63-3.934-3.935a.453.453,0,0,1-.134-.508c.1-.386.124-.789.193-1.183a5.113,5.113,0,0,1,1.434-2.794q3.563-3.577,7.139-7.142h0A.184.184,0,0,1-812.253,210.151Z" transform="translate(-200.601 -1.651)"/>
  </g>
</svg>
