<svg xmlns="http://www.w3.org/2000/svg" width="12.152" height="24.339" viewBox="0 0 12.152 24.339">
  <path id="Path_227" data-name="Path 227" d="M-3413.4-442c0-.071.012-.142.012-.213q0-5.22,0-10.44v-.233h-3.517v-4.334h3.517c0-.114,0-.206,0-.3.011-1.268-.023-2.538.043-3.8a5.17,5.17,0,0,1,1.781-3.857,4.964,4.964,0,0,1,3.246-1.162c1.139-.011,2.279.084,3.419.135a.827.827,0,0,1,.145.034v3.857c-.1,0-.188,0-.28,0-.832.013-1.666-.011-2.494.051a1.407,1.407,0,0,0-1.466,1.428c-.071,1.191-.018,2.389-.018,3.61h3.9l-.539,4.328h-3.376c-.006.094-.016.17-.016.246q0,5.22,0,10.439c0,.07.013.141.02.211Z" transform="translate(3416.907 466.337)" fill="#0f3727"/>
</svg>
