<svg id="Group_136" data-name="Group 136" xmlns="http://www.w3.org/2000/svg" width="22.53" height="22.486" viewBox="0 0 22.53 22.486">
  <path id="Path_230" data-name="Path 230" d="M-4481.007-1235.351a6.582,6.582,0,0,1,.4-1.056,2.66,2.66,0,0,1,2.392-1.391c2.492-.017,4.985-.008,7.477,0a.939.939,0,0,1,.99.953.939.939,0,0,1-1,.925q-3.661,0-7.322,0a.945.945,0,0,0-1.062,1.052q0,6.454,0,12.908a.937.937,0,0,0,1.042,1.049q6.465,0,12.93,0a.945.945,0,0,0,1.038-1.056q0-3.672,0-7.345a.937.937,0,0,1,1.241-.929.952.952,0,0,1,.637.955c0,.843,0,1.686,0,2.529v4.684a2.829,2.829,0,0,1-2.2,2.974.153.153,0,0,0-.035.025h-14.34a1.636,1.636,0,0,0-.156-.064,2.708,2.708,0,0,1-1.683-1.352,7.292,7.292,0,0,1-.36-1Z" transform="translate(4481.007 1241.562)" fill="#707070"/>
  <path id="Path_231" data-name="Path 231" d="M-4351.811-1249.05l3.307,3.308c-.04.043-.091.1-.146.156q-3.568,3.569-7.142,7.132a1.119,1.119,0,0,1-.524.283c-1.022.221-2.051.418-3.078.621a.48.48,0,0,1-.612-.6c.211-1.062.424-2.125.646-3.185a.709.709,0,0,1,.176-.341q3.656-3.668,7.321-7.327A.55.55,0,0,1-4351.811-1249.05Z" transform="translate(4368.022 1252.061)" fill="#707070"/>
  <path id="Path_232" data-name="Path 232" d="M-4220.424-1292.614c.508-.489,1-1.033,1.56-1.481a2.288,2.288,0,0,1,3.06.244,2.285,2.285,0,0,1,.158,3.065,18.866,18.866,0,0,1-1.51,1.44Z" transform="translate(4237.66 1294.571)" fill="#707070"/>
</svg>
