<svg id="Group_16" data-name="Group 16" xmlns="http://www.w3.org/2000/svg" width="18.877" height="18.873" viewBox="0 0 18.877 18.873">
  <path id="Path_14" data-name="Path 14" d="M-191.833,626.083c-.064-.037-.049-.109-.063-.164a2.365,2.365,0,0,0-2.27-1.816c-.786-.013-1.572-.008-2.358,0a.778.778,0,0,0-.808.8.779.779,0,0,0,.827.777c.749,0,1.5,0,2.248,0a.78.78,0,0,1,.846.85q0,5.445,0,10.889a.774.774,0,0,1-.838.836h-14.04a.774.774,0,0,1-.838-.837q0-3.077,0-6.154a.8.8,0,0,0-.762-.866.783.783,0,0,0-.814.811c0,1.068,0,2.137,0,3.206,0,.983.017,1.966,0,2.948a2.379,2.379,0,0,0,1.991,2.439c.015,0,.027.02.04.031h14.854c.027-.057.086-.039.129-.051a2.37,2.37,0,0,0,1.81-1.81c.011-.044-.006-.1.051-.129Z" transform="translate(210.71 -620.958)" fill="#fa9825"/>
  <path id="Path_15" data-name="Path 15" d="M-182.481,619.483c0-.393,0-.786,0-1.179,0-.084,0-.151.119-.153a8.085,8.085,0,0,1,2.943.353,6.433,6.433,0,0,1,3.624,3.143c.195.368.49.511.807.377a.534.534,0,0,0,.362-.491,10.385,10.385,0,0,0-.316-3.41,7.614,7.614,0,0,0-4.809-5.041,7.142,7.142,0,0,0-2.508-.433c-.2,0-.227-.065-.225-.239.009-.755.008-1.511,0-2.266a.593.593,0,0,0-.806-.6.629.629,0,0,0-.225.156q-2.543,2.64-5.085,5.281a.588.588,0,0,0,.042.882l4.012,4.167q.5.517,1,1.034a.591.591,0,0,0,.7.186.612.612,0,0,0,.37-.622C-182.482,620.244-182.481,619.863-182.481,619.483Z" transform="translate(188.781 -609.497)" fill="#fa9825"/>
</svg>
