<svg xmlns="http://www.w3.org/2000/svg" width="46.874" height="31.896" viewBox="0 0 46.874 31.896">
  <g id="Group_2992" data-name="Group 2992" transform="translate(528.454 -463.77)">
    <path id="Path_7968" data-name="Path 7968" d="M-528.454,493.279a2.8,2.8,0,0,0,1.531,2.042,4.251,4.251,0,0,0,1.586.329c5.737.023,11.474.014,17.211.014h23.345a2.871,2.871,0,0,0,3.2-3.187q0-12.75,0-25.5a2.871,2.871,0,0,0-3.2-3.187c-13.4,0-26.794.017-40.19-.02-1.9-.005-3.1.794-3.483,2.405Zm1.9-10.746c-.009-.194-.023-.344-.023-.494q0-7.531,0-15.062c0-1,.311-1.319,1.307-1.319h40.51c1,0,1.313.311,1.313,1.314q0,7.531,0,15.062c0,.162-.016.325-.025.5Zm.006,5.645h43.071c.011.148.029.281.029.414,0,1.327.006,2.655,0,3.982,0,.877-.344,1.22-1.221,1.22q-20.342,0-40.685,0c-.879,0-1.218-.341-1.222-1.218-.006-1.327,0-2.655,0-3.982C-526.581,488.461-526.563,488.327-526.553,488.178Z" transform="translate(0 0)" fill="#fff"/>
    <path id="Path_7969" data-name="Path 7969" d="M-453.616,629.264h8.048a4.009,4.009,0,0,0,.548-.021.924.924,0,0,0,.8-.912.932.932,0,0,0-.809-.907,3.293,3.293,0,0,0-.456-.018h-16.188a3.169,3.169,0,0,0-.5.022.929.929,0,0,0-.776.934.92.92,0,0,0,.785.878,3.758,3.758,0,0,0,.547.023Q-457.617,629.265-453.616,629.264Z" transform="translate(-57.994 -152.358)" fill="#fff"/>
    <path id="Path_7970" data-name="Path 7970" d="M-457.365,660.124c-1.509,0-3.018-.005-4.527,0a.951.951,0,0,0-1.045.815.918.918,0,0,0,.728,1.01,3,3,0,0,0,.546.031q4.321,0,8.643,0c.091,0,.183,0,.274,0a.961.961,0,0,0,1.036-.928.952.952,0,0,0-1.036-.927C-454.286,660.118-455.825,660.124-457.365,660.124Z" transform="translate(-57.999 -188.829)" fill="#fff"/>
  </g>
</svg>
