<svg xmlns="http://www.w3.org/2000/svg" width="34.373" height="34.371" viewBox="0 0 34.373 34.371">
  <g id="Group_3023" data-name="Group 3023" transform="translate(1022.341 -1022.22)">
    <path id="Path_8023" data-name="Path 8023" d="M-1005.826,1022.22h.805a2.722,2.722,0,0,1,2.04,2.123c.134.482.355.939.5,1.419a.426.426,0,0,0,.5.349c2.058-.011,4.117-.015,6.175,0a2.273,2.273,0,0,1,2.205,1.812,3.138,3.138,0,0,1,.06.664c.007.78,0,1.559,0,2.338.173.019.307.024.437.049a3.681,3.681,0,0,1,3.12,3.781q0,1.945,0,3.889c.082.029.143.056.207.074a2.328,2.328,0,0,1,1.806,2.354q0,2.651,0,5.3a2.31,2.31,0,0,1-1.737,2.27c-.255.064-.281.175-.28.389q.01,1.946,0,3.893a3.675,3.675,0,0,1-3.647,3.658q-12.535.011-25.07,0a3.71,3.71,0,0,1-3.488-2.61c-.054-.179-.1-.36-.151-.54V1034.1a4.458,4.458,0,0,1,.8-1.779,3.817,3.817,0,0,1,2.64-1.4c-.145-.4-.282-.772-.417-1.147a2.358,2.358,0,0,1,1.471-3.186q3.249-1.188,6.5-2.364Q-1008.584,1023.228-1005.826,1022.22Zm13.813,16.445c.007-.144.015-.242.016-.34q0-1.762,0-3.524a1.7,1.7,0,0,0-1.836-1.841H-1018.5a1.693,1.693,0,0,0-1.825,1.818q0,8.978,0,17.956a1.7,1.7,0,0,0,1.847,1.835q12.318,0,24.635,0a1.707,1.707,0,0,0,1.848-1.835q0-1.846,0-3.692c0-.1-.012-.193-.02-.306-1.233,0-2.44.007-3.646,0a5.061,5.061,0,0,1-1.031-.1,5.02,5.02,0,0,1-3.963-5.766,5.006,5.006,0,0,1,4.749-4.2C-994.624,1038.645-993.338,1038.665-992.013,1038.665Zm-12.514-12.6c-.176-.5-.344-.977-.519-1.456-.133-.361-.253-.42-.608-.291q-5.736,2.086-11.47,4.178c-.352.128-.4.245-.268.617.18.5.38,1,.543,1.511a.393.393,0,0,0,.45.32c2.92-.01,5.84-.006,8.76-.006h.337c0-.868,0-1.684,0-2.5a2.3,2.3,0,0,1,1.757-2.254A8.419,8.419,0,0,1-1004.527,1026.066Zm11.427,20.6v.048c.861,0,1.723,0,2.584,0,.43,0,.533-.1.534-.534q0-2.483,0-4.966c0-.437-.1-.534-.527-.534q-2.567,0-5.134,0a3.721,3.721,0,0,0-.665.067,3.036,3.036,0,0,0-2.4,3.025,2.95,2.95,0,0,0,2.591,2.876C-995.116,1046.731-994.106,1046.666-993.1,1046.666Zm-12.188-15.755h9.733c0-.776,0-1.524,0-2.273,0-.41-.1-.512-.515-.513h-4.259c-1.487,0-2.973,0-4.46,0-.266,0-.49.057-.495.362C-1005.3,1029.287-1005.288,1030.091-1005.288,1030.911Z" transform="translate(0)" fill="#0f3727"/>
    <path id="Path_8024" data-name="Path 8024" d="M-952.261,1079.173a.99.99,0,0,1,.979-1.015.99.99,0,0,1,1.034.994,1.006,1.006,0,0,1-1.013,1.023A1,1,0,0,1-952.261,1079.173Z" transform="translate(-44.434 -35.467)" fill="#0f3727"/>
  </g>
</svg>
