<svg xmlns="http://www.w3.org/2000/svg" width="118.044" height="120.621" viewBox="0 0 118.044 120.621">
  <g id="Group_3016" data-name="Group 3016" transform="translate(-139.945 -209.127)">
    <path id="Path_7985" data-name="Path 7985" d="M193.882,1411.216A53.673,53.673,0,1,1,140.19,1464.4,53.7,53.7,0,0,1,193.882,1411.216Zm2.652,93.745a22.263,22.263,0,0,0,4.109-.469,40.055,40.055,0,0,0,33.1-44.277c-1.523-12.812-7.993-22.727-18.932-29.611a37.62,37.62,0,0,0-18.281-5.786,16.3,16.3,0,0,0-5.375,0,27.437,27.437,0,0,0-5.822.771,40.068,40.068,0,0,0-31.379,44.373c1.74,13.283,8.681,23.326,20.3,30.027a37.214,37.214,0,0,0,16.9,4.972A16.776,16.776,0,0,0,196.533,1504.961Z" transform="translate(5.126 -1194.162)" fill="#fa9825"/>
    <path id="Path_7986" data-name="Path 7986" d="M140.167,1410.488a6.7,6.7,0,1,1,6.594,6.709A6.709,6.709,0,0,1,140.167,1410.488Z" transform="translate(5.14 -1189.393)" fill="#4a8145"/>
    <path id="Path_7987" data-name="Path 7987" d="M394.58,1700.977a5.362,5.362,0,1,1,5.381,5.338A5.352,5.352,0,0,1,394.58,1700.977Z" transform="translate(-158.05 -1376.566)" fill="#4a8145"/>
    <path id="Path_7988" data-name="Path 7988" d="M389.77,1394.266a2.581,2.581,0,1,1,.083-5.156,2.579,2.579,0,1,1-.083,5.156Z" transform="translate(-153.259 -1179.982)" fill="#fa9825"/>
    <path id="Path_7989" data-name="Path 7989" d="M442.156,1461.605a2.581,2.581,0,1,1,.069-5.156,2.579,2.579,0,1,1-.069,5.156Z" transform="translate(-186.857 -1223.176)" fill="#fa9825"/>
    <path id="Path_7990" data-name="Path 7990" d="M127.879,1463.932a2.579,2.579,0,1,1,.076,5.156,2.581,2.581,0,1,1-.076-5.156Z" transform="translate(14.73 -1227.976)" fill="#fa9825"/>
    <path id="Path_7991" data-name="Path 7991" d="M127.9,1650.984a2.579,2.579,0,1,1,.028,5.156,2.581,2.581,0,1,1-.028-5.156Z" transform="translate(14.73 -1347.958)" fill="#fa9825"/>
    <path id="Path_7992" data-name="Path 7992" d="M442.176,1650.984a2.579,2.579,0,1,1,.029,5.156,2.581,2.581,0,1,1-.029-5.156Z" transform="translate(-186.856 -1347.958)" fill="#fa9825"/>
    <path id="Path_7996" data-name="Path 7996" d="M272.827,1526.539a5,5,0,0,1-1.553,3.73q-12.936,12.959-25.878,25.913c-.537.539-.845.543-1.38,0-4.184-4.226-8.423-8.4-12.592-12.639a5.374,5.374,0,0,1,7.587-7.613c1.68,1.607,3.341,3.239,4.92,4.943.716.773,1.069.49,1.657-.1q8.841-8.9,17.722-17.753a5.406,5.406,0,0,1,5.439-1.765A5.264,5.264,0,0,1,272.827,1526.539Z" transform="translate(-52.368 -1264.632)" fill="#0f3727"/>
  </g>
</svg>
